<svg preserveAspectRatio="none" width="100%" height="100%" overflow="visible" style="display: block;" viewBox="0 0 21.2443 21.2404" fill="none" xmlns="http://www.w3.org/2000/svg">
<path id="Icon" d="M3 18.2404C2.0625 17.3029 1.32812 16.2196 0.796875 14.9904C0.265625 13.7612 0 12.4904 0 11.1779C0 9.86539 0.25 8.56851 0.75 7.28726C1.25 6.00601 2.0625 4.80288 3.1875 3.67788C3.91667 2.94872 4.81771 2.32372 5.89062 1.80288C6.96354 1.28205 8.23438 0.870593 9.70312 0.56851C11.1719 0.266426 12.849 0.0841346 14.7344 0.0216346C16.6198 -0.0408654 18.7292 0.0320513 21.0625 0.240385C21.2292 2.44872 21.2812 4.47997 21.2188 6.33413C21.1562 8.1883 20.9844 9.86018 20.7031 11.3498C20.4219 12.8393 20.026 14.1414 19.5156 15.256C19.0052 16.3706 18.375 17.3029 17.625 18.0529C16.5208 19.1571 15.349 19.9643 14.1094 20.4748C12.8698 20.9852 11.6042 21.2404 10.3125 21.2404C8.95833 21.2404 7.63542 20.9748 6.34375 20.4435C5.05208 19.9123 3.9375 19.1779 3 18.2404V18.2404M6.5 17.7404C7.10417 18.0946 7.72396 18.3498 8.35938 18.506C8.99479 18.6623 9.64583 18.7404 10.3125 18.7404C11.2708 18.7404 12.2188 18.5477 13.1562 18.1623C14.0938 17.7768 14.9896 17.1571 15.8438 16.3029C16.2188 15.9279 16.599 15.4018 16.9844 14.7248C17.3698 14.0477 17.7031 13.1623 17.9844 12.0685C18.2656 10.9748 18.4792 9.65184 18.625 8.09976C18.7708 6.54768 18.7917 4.69872 18.6875 2.55288C17.6667 2.51122 16.5156 2.49559 15.2344 2.50601C13.9531 2.51643 12.6771 2.61538 11.4062 2.80288C10.1354 2.99038 8.92708 3.29247 7.78125 3.70913C6.63542 4.1258 5.69792 4.69872 4.96875 5.42788C4.03125 6.36538 3.38542 7.29247 3.03125 8.20914C2.67708 9.1258 2.5 10.0112 2.5 10.8654C2.5 12.0946 2.73438 13.1727 3.20312 14.0998C3.67188 15.0268 4.08333 15.6779 4.4375 16.0529C5.3125 14.3862 6.46875 12.7873 7.90625 11.256C9.34375 9.72476 11.0208 8.46955 12.9375 7.49038C11.4375 8.80288 10.1302 10.2873 9.01562 11.9435C7.90104 13.5998 7.0625 15.5321 6.5 17.7404V17.7404M6.5 17.7404V17.7404V17.7404V17.7404V17.7404V17.7404V17.7404V17.7404V17.7404V17.7404V17.7404V17.7404M6.5 17.7404V17.7404V17.7404V17.7404V17.7404V17.7404V17.7404V17.7404V17.7404V17.7404V17.7404V17.7404V17.7404V17.7404V17.7404V17.7404V17.7404V17.7404V17.7404V17.7404V17.7404V17.7404" fill="var(--fill-0, #5B6147)"/>
</svg>
