<svg preserveAspectRatio="none" width="100%" height="100%" overflow="visible" style="display: block;" viewBox="0 0 22.5 22.5" fill="none" xmlns="http://www.w3.org/2000/svg">
<path id="Icon" d="M6.875 9.375H2.5C1.8125 9.375 1.22396 9.13021 0.734375 8.64062C0.244792 8.15104 0 7.5625 0 6.875V2.5C0 1.8125 0.244792 1.22396 0.734375 0.734375C1.22396 0.244792 1.8125 0 2.5 0H6.875C7.5625 0 8.15104 0.244792 8.64062 0.734375C9.13021 1.22396 9.375 1.8125 9.375 2.5V6.875C9.375 7.5625 9.13021 8.15104 8.64062 8.64062C8.15104 9.13021 7.5625 9.375 6.875 9.375V9.375M2.5 6.875H6.875V6.875V6.875V2.5V2.5V2.5H2.5V2.5V2.5V6.875V6.875V6.875V6.875M6.875 22.5H2.5C1.8125 22.5 1.22396 22.2552 0.734375 21.7656C0.244792 21.276 0 20.6875 0 20V15.625C0 14.9375 0.244792 14.349 0.734375 13.8594C1.22396 13.3698 1.8125 13.125 2.5 13.125H6.875C7.5625 13.125 8.15104 13.3698 8.64062 13.8594C9.13021 14.349 9.375 14.9375 9.375 15.625V20C9.375 20.6875 9.13021 21.276 8.64062 21.7656C8.15104 22.2552 7.5625 22.5 6.875 22.5V22.5M2.5 20H6.875V20V20V15.625V15.625V15.625H2.5V15.625V15.625V20V20V20V20M20 9.375H15.625C14.9375 9.375 14.349 9.13021 13.8594 8.64062C13.3698 8.15104 13.125 7.5625 13.125 6.875V2.5C13.125 1.8125 13.3698 1.22396 13.8594 0.734375C14.349 0.244792 14.9375 0 15.625 0H20C20.6875 0 21.276 0.244792 21.7656 0.734375C22.2552 1.22396 22.5 1.8125 22.5 2.5V6.875C22.5 7.5625 22.2552 8.15104 21.7656 8.64062C21.276 9.13021 20.6875 9.375 20 9.375V9.375M15.625 6.875H20V6.875V6.875V2.5V2.5V2.5H15.625V2.5V2.5V6.875V6.875V6.875V6.875M20 22.5H15.625C14.9375 22.5 14.349 22.2552 13.8594 21.7656C13.3698 21.276 13.125 20.6875 13.125 20V15.625C13.125 14.9375 13.3698 14.349 13.8594 13.8594C14.349 13.3698 14.9375 13.125 15.625 13.125H20C20.6875 13.125 21.276 13.3698 21.7656 13.8594C22.2552 14.349 22.5 14.9375 22.5 15.625V20C22.5 20.6875 22.2552 21.276 21.7656 21.7656C21.276 22.2552 20.6875 22.5 20 22.5V22.5M15.625 20H20V20V20V15.625V15.625V15.625H15.625V15.625V15.625V20V20V20V20M6.875 6.875V6.875V6.875V6.875V6.875V6.875V6.875V6.875V6.875V6.875V6.875V6.875V6.875V6.875M6.875 15.625V15.625V15.625V15.625V15.625V15.625V15.625V15.625V15.625V15.625V15.625V15.625V15.625V15.625M15.625 6.875V6.875V6.875V6.875V6.875V6.875V6.875V6.875V6.875V6.875V6.875V6.875V6.875V6.875M15.625 15.625V15.625V15.625V15.625V15.625V15.625V15.625V15.625V15.625V15.625V15.625V15.625V15.625V15.625" fill="var(--fill-0, #5B6147)"/>
</svg>
