<svg preserveAspectRatio="none" width="100%" height="100%" overflow="visible" style="display: block;" viewBox="0 0 337 89" fill="none" xmlns="http://www.w3.org/2000/svg">
<g id="Vector">
<path d="M171.235 2.17663C167.334 2.17663 163.475 3.30525 159.658 5.5625C155.927 7.73913 152.449 10.8025 149.227 14.7527C146.004 18.6223 143.162 23.0965 140.703 28.1753C138.243 33.1735 136.293 38.5344 134.851 44.2582C133.494 49.9819 132.815 55.7459 132.815 61.5503C132.815 69.4506 134.427 75.6581 137.65 80.1726C140.957 84.6064 145.198 86.8234 150.371 86.8234C154.273 86.8234 158.089 85.7351 161.821 83.5584C165.638 81.3012 169.157 78.2378 172.38 74.3682C175.603 70.418 178.444 65.9438 180.904 60.9457C183.363 55.8669 185.272 50.4656 186.629 44.7419C188.07 39.0181 188.791 33.2541 188.791 27.4497C188.791 19.5494 187.137 13.3822 183.83 8.94838C180.607 4.43388 176.409 2.17663 171.235 2.17663ZM119.33 59.9783C119.33 54.6576 120.136 49.1757 121.747 43.5326C123.359 37.8895 125.691 32.4882 128.744 27.3288C131.798 22.1694 135.487 17.534 139.812 13.4226C144.223 9.31114 149.142 6.0462 154.57 3.62772C159.998 1.20924 165.934 0 172.38 0C181.794 0 189.13 2.5394 194.389 7.61821C199.732 12.6164 202.404 19.7912 202.404 29.1427C202.404 34.4633 201.555 39.9452 199.859 45.5883C198.248 51.1508 195.915 56.5118 192.862 61.6712C189.809 66.8306 186.077 71.466 181.667 75.5775C177.342 79.6889 172.423 82.9538 166.91 85.3723C161.482 87.7908 155.587 89 149.227 89C139.812 89 132.476 86.5009 127.218 81.5027C121.959 76.4239 119.33 69.2491 119.33 59.9783Z" fill="var(--fill-0, #2B201F)"/>
<path d="M213.152 2.17663C209.251 2.17663 205.392 3.30525 201.576 5.5625C197.844 7.73913 194.367 10.8025 191.144 14.7527C187.921 18.6223 185.08 23.0965 182.62 28.1753C180.161 33.1735 178.21 38.5344 176.768 44.2582C175.411 49.9819 174.733 55.7459 174.733 61.5503C174.733 69.4506 176.344 75.6581 179.567 80.1726C182.875 84.6064 187.115 86.8234 192.289 86.8234C196.19 86.8234 200.007 85.7351 203.738 83.5584C207.555 81.3012 211.075 78.2378 214.297 74.3682C217.52 70.418 220.361 65.9438 222.821 60.9457C225.281 55.8669 227.189 50.4656 228.546 44.7419C229.988 39.0181 230.709 33.2541 230.709 27.4497C230.709 19.5494 229.055 13.3822 225.747 8.94838C222.524 4.43388 218.326 2.17663 213.152 2.17663ZM161.248 59.9783C161.248 54.6576 162.053 49.1757 163.665 43.5326C165.276 37.8895 167.608 32.4882 170.662 27.3288C173.715 22.1694 177.404 17.534 181.73 13.4226C186.14 9.31114 191.059 6.0462 196.487 3.62772C201.915 1.20924 207.852 0 214.297 0C223.712 0 231.048 2.5394 236.306 7.61821C241.649 12.6164 244.321 19.7912 244.321 29.1427C244.321 34.4633 243.473 39.9452 241.776 45.5883C240.165 51.1508 237.833 56.5118 234.78 61.6712C231.726 66.8306 227.995 71.466 223.584 75.5775C219.259 79.6889 214.34 82.9538 208.827 85.3723C203.399 87.7908 197.505 89 191.144 89C181.73 89 174.393 86.5009 169.135 81.5027C163.877 76.4239 161.248 69.2491 161.248 59.9783Z" fill="var(--fill-0, #2B201F)"/>
<path d="M15.9022 37.8037H41.8547C45.6712 37.8037 48.8516 36.796 51.396 34.7806C53.9404 32.6845 55.2125 29.7018 55.2125 25.8322C55.2125 21.4789 54.0676 18.4155 51.7777 16.642C49.4877 14.8684 46.1801 13.9816 41.8547 13.9816H15.9022V37.8037ZM0 1.6474H44.1446C52.2865 1.6474 58.817 3.42095 63.7361 6.96806C68.6552 10.5152 71.1148 15.8761 71.1148 23.0509C71.1148 27.4042 69.9698 31.1528 67.6799 34.2969C65.4748 37.3603 62.2943 39.7384 58.1386 41.4314V41.6732C63.7361 42.8018 67.9767 45.3412 70.8603 49.2914C73.7439 53.161 75.1857 58.0383 75.1857 63.9232C75.1857 67.3091 74.5496 70.4934 73.2775 73.4762C72.0053 76.3784 70.0122 78.9178 67.2982 81.0944C64.5842 83.1904 61.107 84.8834 56.8664 86.1732C52.6258 87.3825 47.5795 87.9871 41.7274 87.9871H0V1.6474ZM15.9022 75.6528H44.0174C48.8516 75.6528 52.5834 74.4839 55.2125 72.146C57.9265 69.7276 59.2835 66.3417 59.2835 61.9884C59.2835 57.7158 57.9265 54.4508 55.2125 52.1936C52.5834 49.8557 48.8516 48.6868 44.0174 48.6868H15.9022V75.6528Z" fill="var(--fill-0, #2B201F)"/>
<path d="M72.5142 1.6474H88.4164V74.9273H134.596V87.9871H72.5142V1.6474Z" fill="var(--fill-0, #2B201F)"/>
<path d="M242.732 1.6474H265.122L290.184 69.2439H290.438L314.864 1.6474H337V87.9871H321.861V21.358H321.607L296.417 87.9871H283.314L258.125 21.358H257.871V87.9871H242.732V1.6474Z" fill="var(--fill-0, #2B201F)"/>
<path d="M134.088 85.0389H137.904V87.4574H134.088V85.0389Z" fill="var(--fill-0, #2B201F)"/>
</g>
</svg>
